<?xml version="1.0" encoding="utf-8"?>
<!-- Generator: Adobe Illustrator 16.0.0, SVG Export Plug-In . SVG Version: 6.00 Build 0)  -->
<!DOCTYPE svg PUBLIC "-//W3C//DTD SVG 1.1//EN" "http://www.w3.org/Graphics/SVG/1.1/DTD/svg11.dtd">
<svg version="1.1" id="Layer_1" xmlns="http://www.w3.org/2000/svg" xmlns:xlink="http://www.w3.org/1999/xlink" x="0px" y="0px"
	 width="841.89px" height="595.28px" viewBox="0 0 841.89 595.28" enable-background="new 0 0 841.89 595.28" xml:space="preserve">
<path d="M222.955,98.438c-55.345,0-100.213,44.868-100.213,100.22c0,55.348,44.868,100.213,100.213,100.213
	c55.344,0,100.213-44.865,100.213-100.213C323.168,143.307,278.299,98.438,222.955,98.438z M209.133,162.03h27.049
	c1.657,0,3,1.343,3,3s-1.343,3-3,3h-27.049c-1.657,0-3-1.343-3-3S207.476,162.03,209.133,162.03z M197.231,228.137l25.424-43.158
	l25.425,43.158H197.231z"/>
<g>
	<path d="M99.895,439.436c-6.425,6.426-15.911,9.944-27.231,9.944H36.1V340.455h36.563c11.321,0,20.806,3.519,27.231,9.943
		c11.015,11.016,10.556,28.303,10.556,42.989S110.909,428.421,99.895,439.436z M94.081,356.212
		c-6.272-6.425-14.687-8.414-23.407-8.414H44.361v94.238h26.313c8.72,0,17.134-1.988,23.407-8.414
		c8.72-8.873,8.108-28.148,8.108-40.234S102.801,365.085,94.081,356.212z"/>
	<path d="M136.911,350.093v-9.638h9.638v9.638H136.911z M137.829,449.38v-73.738h7.802v73.738H137.829z"/>
	<path d="M221.204,442.189c-5.202,5.201-12.239,8.108-20.5,8.108s-15.298-2.907-20.5-8.108c-7.802-7.802-9.179-19.123-9.179-29.679
		s1.376-21.877,9.179-29.679c5.202-5.202,12.239-8.108,20.5-8.108s15.298,2.906,20.5,8.108c7.802,7.802,9.179,19.123,9.179,29.679
		S229.006,434.388,221.204,442.189z M216.002,387.88c-3.978-3.978-9.332-6.272-15.298-6.272s-11.321,2.295-15.298,6.272
		c-6.12,6.119-6.578,16.063-6.578,24.631s0.458,18.511,6.578,24.631c3.978,3.978,9.332,6.271,15.298,6.271
		s11.321-2.294,15.298-6.271c6.12-6.12,6.579-16.063,6.579-24.631S222.122,393.999,216.002,387.88z"/>
	<path d="M300.903,449.38v-9.485c-6.426,8.567-13.616,10.403-21.877,10.403c-7.649,0-14.228-2.601-18.052-6.426
		c-7.496-7.496-9.485-19.734-9.485-31.361s1.989-23.866,9.485-31.362c3.825-3.824,10.403-6.425,18.052-6.425
		c8.261,0,15.451,1.836,21.877,10.402v-44.671h7.802V449.38H300.903z M280.097,381.607c-18.052,0-20.806,15.604-20.806,30.903
		c0,15.298,2.754,30.902,20.806,30.902s20.806-15.604,20.806-30.902C300.903,397.212,298.149,381.607,280.097,381.607z"/>
	<path d="M384.275,442.189c-5.202,5.201-12.239,8.108-20.5,8.108s-15.298-2.907-20.5-8.108c-7.802-7.802-9.179-19.123-9.179-29.679
		s1.376-21.877,9.179-29.679c5.202-5.202,12.239-8.108,20.5-8.108s15.298,2.906,20.5,8.108c7.802,7.802,9.179,19.123,9.179,29.679
		S392.078,434.388,384.275,442.189z M379.074,387.88c-3.978-3.978-9.332-6.272-15.298-6.272s-11.321,2.295-15.298,6.272
		c-6.12,6.119-6.579,16.063-6.579,24.631s0.459,18.511,6.579,24.631c3.978,3.978,9.332,6.271,15.298,6.271
		s11.321-2.294,15.298-6.271c6.12-6.12,6.579-16.063,6.579-24.631S385.193,393.999,379.074,387.88z"/>
	<path d="M441.486,450.298c-12.852,0-22.336-3.365-29.832-10.556l5.354-5.354c5.813,6.119,13.615,9.025,24.171,9.025
		c14.381,0,22.184-5.048,22.184-14.992c0-7.649-4.438-11.474-14.075-12.392l-12.238-1.071c-14.84-1.224-22.183-7.802-22.183-19.275
		c0-12.698,10.403-20.959,26.466-20.959c10.097,0,19.429,2.906,25.854,7.802l-5.201,5.202c-5.66-4.131-12.545-6.272-20.653-6.272
		c-12.085,0-18.817,5.201-18.817,14.228c0,7.648,4.59,11.474,14.992,12.392l11.934,1.07c12.238,1.071,21.57,4.896,21.57,19.276
		C471.012,441.884,459.538,450.298,441.486,450.298z"/>
	<path d="M535.41,449.38V340.455h8.262v101.581H601.5v7.344H535.41z"/>
	<path d="M664.218,449.38v-7.344c-6.272,6.272-12.085,8.262-22.488,8.262c-10.862,0-16.981-1.836-21.724-6.731
		c-3.366-3.519-5.354-8.873-5.354-14.381c0-13.462,9.638-21.265,25.701-21.265h23.865v-8.261c0-11.78-5.813-18.053-20.806-18.053
		c-10.402,0-15.757,2.601-20.347,9.332l-5.66-4.896c6.271-8.72,14.074-11.32,26.007-11.32c19.429,0,28.608,8.72,28.608,24.171
		v50.485H664.218z M664.218,414.193h-22.947c-12.698,0-18.817,5.049-18.817,14.84s5.967,14.38,19.276,14.38
		c6.731,0,13.156-0.611,18.358-5.66c2.753-2.601,4.13-7.19,4.13-14.074V414.193z"/>
	<path d="M748.813,443.872c-3.824,3.825-10.402,6.426-18.052,6.426c-8.261,0-15.451-1.836-21.877-10.403v9.485h-7.802V340.455h7.802
		v44.671c6.426-8.566,13.616-10.402,21.877-10.402c7.649,0,14.228,2.601,18.052,6.425c7.497,7.496,9.485,19.735,9.485,31.362
		S756.311,436.376,748.813,443.872z M729.69,381.607c-18.052,0-20.806,15.604-20.806,30.903c0,15.298,2.754,30.902,20.806,30.902
		c18.053,0,20.807-15.604,20.807-30.902C750.497,397.212,747.743,381.607,729.69,381.607z"/>
</g>
</svg>
